# xmcd
# 
# Track frame offsets:
#     182
#     11615
#     23052
#     36937
#     49447
#     63182
#     74580
#     87987
#     99990
#     112837
#     125322
#     136465
#     147877
#     160645
#     172005
#     184812
#     195852
#     206287
#     216922
#     228752
#     240835
# 
# Disc length: 3361
# 
# Revision: 1
# Processed by: cddbd v1.5.2PL0 Copyright (c) Steve Scherf et al.
# Submitted via: fre:ac v1.0.17
# 
DISCID=150d1f15
DTITLE=Various Artist - Welcome To My World - Disc 01
DYEAR=0
DGENRE=Country
TTITLE0=Jim Reeves - My Heart's Like A Welcome Mat
TTITLE1=Jim Reeves - Teardrops Of Regret
TTITLE2=Jim Reeves - Chicken Hearted
TTITLE3=Jim Reeves - I've Never Been So Blue
TTITLE4=Jim Reeves - What Were You Doing Last Night
TTITLE5=Jim Reeves - Wagon Load Of Love
TTITLE6=Jim Reeves - I Could Cry
TTITLE7=Jim Reeves - Mexican Joe
TTITLE8=Jim Reeves - Butterfly Love
TTITLE9=Jim Reeves - Let Me Love You Just A Little
TTITLE10=Jim Reeves - El Rancho Del Rio
TTITLE11=Jim Reeves - It's Hard To Love Just One
TTITLE12=Jim Reeves - Bimbo
TTITLE13=Jim Reeves - Gypsy Heart
TTITLE14=Jim Reeves - Echo Bonita
TTITLE15=Jim Reeves - Then I'll Stop Loving You
TTITLE16=Jim Reeves - Beatin' On A Ding Dong
TTITLE17=Jim Reeves - My Rambling Heart
TTITLE18=Jim Reeves - Padre Of Old San Antone
TTITLE19=Jim Reeves - Mother Went A-Walkin'
TTITLE20=Jim Reeves and Ginny Wright - I Love You
EXTD=
EXTT0=
EXTT1=
EXTT2=
EXTT3=
EXTT4=
EXTT5=
EXTT6=
EXTT7=
EXTT8=
EXTT9=
EXTT10=
EXTT11=
EXTT12=
EXTT13=
EXTT14=
EXTT15=
EXTT16=
EXTT17=
EXTT18=
EXTT19=
EXTT20=
PLAYORDER=
